<?xml version="1.0" encoding="iso-8859-1"?>
<!-- Generator: Adobe Illustrator 19.0.0, SVG Export Plug-In . SVG Version: 6.00 Build 0)  -->
<svg version="1.1" id="Layer_1" xmlns="http://www.w3.org/2000/svg" xmlns:xlink="http://www.w3.org/1999/xlink" x="0px" y="0px"
	 viewBox="0 0 297 297" style="enable-background:new 0 0 297 297;" xml:space="preserve">
<g>
	<g>
		<path d="M210.291,233.036l-34.08-170.4l16.456-49.37c1.024-3.074,0.509-6.452-1.386-9.08C189.387,1.557,186.345,0,183.105,0
			h-69.21c-3.24,0-6.282,1.557-8.177,4.186c-1.895,2.628-2.41,6.006-1.386,9.08l16.456,49.37l-34.08,170.4
			c-0.661,3.304,0.373,6.721,2.756,9.104l51.908,51.908c1.969,1.968,4.547,2.952,7.127,2.952c2.58,0,5.159-0.984,7.127-2.952
			l51.908-51.908C209.918,239.757,210.953,236.341,210.291,233.036z M169.121,20.158l-10.583,31.75h-20.076l-10.583-31.75H169.121z
			 M160.656,87.647l-30.39,30.39l9.194-45.971h18.08L160.656,87.647z M124.564,146.547l39.893-39.893l5.228,26.14l-52.963,52.963
			L124.564,146.547z M107.534,231.7l3.486-17.433l62.466-62.466l6.152,30.759l-60.623,60.623L107.534,231.7z M148.5,272.666
			l-18.08-18.08l53.02-53.02l6.027,30.134L148.5,272.666z"/>
	</g>
</g>
<g>
</g>
<g>
</g>
<g>
</g>
<g>
</g>
<g>
</g>
<g>
</g>
<g>
</g>
<g>
</g>
<g>
</g>
<g>
</g>
<g>
</g>
<g>
</g>
<g>
</g>
<g>
</g>
<g>
</g>
</svg>
